<svg width="464" height="180" viewBox="0 0 464 180" fill="none" xmlns="http://www.w3.org/2000/svg">
<g clip-path="url(#clip0_8_2)">
<path d="M69.6811 61.7343C69.6811 61.7343 67.9289 63.3557 60.9637 67.9411C59.4687 68.9261 56.3653 70.9268 53.1311 73.3763C49.4873 76.1354 41.4193 84.4997 39.3228 92.2974C36.3545 102.048 38.2636 111.458 46.2488 120.485C37.0258 87.8646 65.0478 71.0837 69.6811 61.7343Z" fill="#FFC20E"/>
<path d="M58.4052 65.4435C58.4052 65.4435 68.9358 58.2909 73.9134 50.2099C75.4041 54.7909 79.6233 61.1633 87.0156 70.6609C87.7174 71.5588 91.5487 77.0289 93.2311 79.9318C93.8675 81.0302 94.4951 82.1373 95.04 83.1398C95.9335 84.783 97.677 89.5819 98.0562 91.1336C99.6907 97.8591 100.166 105.91 97.1365 112.112C87.5518 129.909 66.9221 128.13 57.285 120.411C54.0945 117.848 49.5309 111.51 48.8597 107.1C48.3933 109.288 49.0602 112.731 49.6748 115.128C50.4419 117.364 51.5533 119.914 52.7302 121.788C58.9588 131.696 70.4177 136.054 79.0567 136.054C103.784 136.054 112.231 113.86 111.995 102.335C111.856 95.6056 110.239 88.5271 103.801 79.0819C94.8264 66.8819 85.7647 62.8152 74.8636 41C69.6681 51.8967 58.8716 65.0033 58.4052 65.4435Z" fill="#00AE4D"/>
<path d="M158.423 92.9686C161.359 92.9686 165.412 92.8505 168.839 92.5051C168.493 93.0323 168.066 93.7321 168.066 94.6046C168.066 95.1863 168.202 95.9498 168.275 96.7042C166.457 96.3497 158.705 96.0589 157.096 96.0589H152.279C150.879 101.421 149.698 106.847 148.571 112.273C154.024 112.273 163.385 111.919 166.457 111.746C165.903 112.564 165.83 113.146 165.83 113.846C165.83 114.427 165.903 115.073 166.039 115.654C160.868 115.418 158.141 115.3 152.833 115.3C148.78 115.3 141.09 115.536 139 115.654C140.609 110.174 142.708 103.23 147.316 83.0527C147.871 80.5987 148.298 78.1538 148.716 75.6998C149.907 75.7544 154.724 76.0452 156.123 76.0452C161.577 76.0452 167.375 75.9271 173.101 75.6998C172.056 77.3358 171.911 77.972 171.911 79.7807C167.648 79.3172 165.694 79.199 161.64 79.199C160.241 79.199 158.986 79.199 156.678 79.3172C155.978 81.653 154.024 88.8787 152.979 92.9686H158.423V92.9686Z" fill="white"/>
<path d="M211.811 101.885C212.093 100.658 214.256 91.3236 215.092 87.2427C216.628 79.599 216.91 78.7264 217.191 75.6998C218.727 75.927 219.636 76.0452 220.545 76.0452C221.736 76.0452 222.781 75.8725 223.826 75.6998C220.609 84.2161 218.1 93.314 215.374 104.393C213.765 110.983 213.629 111.746 212.856 116C212.229 115.827 211.529 115.709 210.902 115.709C210.275 115.709 209.648 115.882 209.011 116L205.031 110.746C203.422 108.583 200.35 105.266 198.532 103.103C193.706 97.3858 188.752 91.7871 183.854 86.0702C183.017 88.5787 180.636 99.9489 180.082 102.285C178.755 107.883 178.546 109.283 177.5 115.645C176.383 115.473 175.265 115.291 174.147 115.291C172.956 115.291 171.911 115.464 170.929 115.645C173.165 109.229 175.119 103.63 177.291 95.5226C179.873 85.7248 180.854 82.2802 181.909 75.3999C182.536 75.5726 183.163 75.6907 183.863 75.6907C184.772 75.6907 185.326 75.5726 185.889 75.3999C188.825 80.0716 196.024 88.5787 198.677 91.7326C202.658 96.3951 206.785 101.003 210.902 105.611L211.811 101.885Z" fill="white"/>
<path d="M243.676 92.9686C246.612 92.9686 250.666 92.8505 254.083 92.5051C253.738 93.0323 253.311 93.7321 253.311 94.6046C253.311 95.1863 253.447 95.9498 253.52 96.7042C251.702 96.3497 243.949 96.0589 242.34 96.0589H237.523C236.124 101.421 234.942 106.847 233.815 112.273C239.268 112.273 248.63 111.919 251.702 111.746C251.147 112.564 251.075 113.146 251.075 113.846C251.075 114.427 251.147 115.073 251.284 115.654C246.112 115.418 243.386 115.3 238.078 115.3C234.024 115.3 226.335 115.536 224.244 115.654C225.853 110.174 227.953 103.23 232.561 83.0527C233.115 80.5987 233.542 78.1538 233.96 75.6998C235.151 75.7544 239.968 76.0452 241.368 76.0452C246.821 76.0452 252.62 75.9271 258.346 75.6998C257.301 77.3358 257.155 77.972 257.155 79.7807C252.892 79.3172 250.938 79.199 246.885 79.199C245.485 79.199 244.231 79.199 241.922 79.3172C241.222 81.653 239.268 88.8787 238.214 92.9686H243.676V92.9686Z" fill="white"/>
<path d="M293.783 115.654C292.384 115.482 290.638 115.3 288.684 115.3C286.867 115.3 285.612 115.418 283.867 115.654C281.35 111.283 278.341 107.084 275.415 102.939C274.088 101.076 271.852 98.1584 270.525 96.3497C269.689 99.4399 268.707 103.348 268.007 106.675L266.053 115.654C264.59 115.482 263.045 115.3 261.581 115.3C260.045 115.3 258.573 115.473 257.182 115.654L259 109.065C261.936 98.3311 265.78 81.7076 266.898 75.6998C269.134 75.8725 271.297 76.0452 273.533 76.0452C276.542 76.0452 280.032 75.6998 282.549 75.6998C289.82 75.6998 295.41 78.9082 295.41 84.7978C295.41 90.2238 290.938 95.1227 279.55 96.2316C281.786 99.7308 291.366 112.392 294.083 114.955L293.783 115.654ZM275.26 78.4447L274.633 80.7805C274.351 81.7712 273.097 86.2066 272.888 87.0791L271.07 94.0775C275.896 94.0775 278.478 93.8503 280.577 93.0323C282.886 92.0961 287.212 89.6512 287.212 84.9887C287.212 82.9437 285.885 78.4537 277.705 78.4537H275.26V78.4447Z" fill="white"/>
<path d="M343.181 84.0979C341.436 81.9348 337.8 77.9175 328.993 77.9175C315.296 77.9175 308.871 90.0511 308.871 100.085C308.871 107.838 313.906 113.555 323.613 113.555C326.339 113.555 329.202 113.091 331.793 112.392C333.611 107.783 334.238 104.984 335.219 98.8582C336.828 99.0854 338.709 99.2036 340.182 99.2036C341.372 99.2036 343.117 99.149 344.517 98.8582C341.654 106.029 340.954 109.647 340.182 114.255C334.456 115.191 328.721 116.472 322.922 116.472C303.354 116.472 300.209 104.112 300.209 99.4399C300.209 92.2052 302.508 85.7339 311.043 79.8989C315.724 76.6905 322.577 75 330.329 75C336.901 75 341.018 76.2815 347.035 78.272C345.635 79.6081 345.008 80.835 343.545 84.107H343.181V84.0979Z" fill="white"/>
<path d="M364.076 79.2536C364.494 80.4169 366.312 85.4976 366.73 86.5428C369.102 92.4324 369.384 93.1323 370.438 95.6408C373.511 92.0779 374.283 91.0327 377.71 86.4792C379.6 83.9707 382.318 79.9443 385.181 75.6907C386.162 75.8089 387.762 76.0361 388.889 76.0361C390.143 76.0361 391.406 75.8089 392.661 75.6907C391.052 77.6721 383.372 86.1884 381.827 87.9425C380.082 89.9239 374.138 97.2131 371.975 99.958L370.857 105.093C370.575 106.375 369.393 111.919 368.693 115.645C367.085 115.409 365.894 115.291 364.294 115.291C362.758 115.291 361.15 115.409 359.614 115.645C360.314 113.428 364.085 100.131 364.085 99.958C364.085 99.3127 356.887 82.9891 353.251 75.6998C355.551 75.9271 357.16 76.0452 358.214 76.0452C359.541 76.0452 360.732 75.9271 362.758 75.6998L364.076 79.2536Z" fill="white"/>
<path d="M405.713 124.607C404.867 124.48 403.922 124.343 402.868 124.343C401.813 124.343 400.759 124.516 399.714 124.607L400.35 122.58C402.25 116.554 403.931 108.856 404.985 103.539C405.985 103.63 407.039 103.803 408.094 103.803C409.148 103.803 410.039 103.675 410.884 103.539C410.093 106.138 409.939 106.666 409.566 108.42C412.302 105.339 414.301 103.094 418.419 103.094C419.046 103.094 419.573 103.221 420 103.312C419.264 105.639 419.109 106.084 418.946 108.065L418.528 108.147C418.155 107.929 417.364 107.574 416.31 107.574C415.21 107.574 411.62 107.574 409.357 111.355C408.303 113.119 407.249 117.645 406.567 120.808L405.713 124.607Z" fill="white"/>
<path d="M394.661 103.103C395.715 103.275 396.56 103.366 397.66 103.366C398.714 103.366 399.823 103.275 400.923 103.103C399.241 108.292 398.187 112.955 397.024 117.927C394.442 129.006 393.543 130.415 391.07 132.569C388.907 134.414 386.753 135.077 384.281 135.514C384.172 134.896 384.017 134.459 383.599 133.887C386.808 133.187 387.762 132.651 389.707 124.87C391.234 118.845 392.861 112.782 394.133 106.711C394.451 105.211 394.606 104.03 394.661 103.103Z" fill="white"/>
<path d="M395.733 96.686C395.915 98.2402 397.678 99.3036 399.668 99.0673C401.659 98.831 403.122 97.3859 402.94 95.8317C402.758 94.2775 400.995 93.2141 399.005 93.4504C397.014 93.6867 395.551 95.1318 395.733 96.686Z" fill="white"/>
</g>
<defs>
<clipPath id="clip0_8_2">
<rect width="464" height="180" fill="white"/>
</clipPath>
</defs>
</svg>
