<svg width="74" height="96" viewBox="0 0 74 96" fill="none" xmlns="http://www.w3.org/2000/svg">
<path d="M31.6811 20.7343C31.6811 20.7343 29.9289 22.3557 22.9637 26.9411C21.4687 27.9261 18.3653 29.9268 15.1311 32.3763C11.4873 35.1354 3.41934 43.4997 1.32281 51.2974C-1.64546 61.0478 0.26365 70.4582 8.24877 79.485C-0.974218 46.8646 27.0478 30.0837 31.6811 20.7343Z" fill="#FFC20E"/>
<path d="M20.4052 24.4435C20.4052 24.4435 30.9358 17.2909 35.9134 9.20991C37.4041 13.7909 41.6233 20.1633 49.0156 29.6609C49.7174 30.5588 53.5487 36.0289 55.2311 38.9318C55.8675 40.0302 56.4951 41.1373 57.04 42.1398C57.9335 43.783 59.677 48.5819 60.0562 50.1336C61.6907 56.8591 62.1658 64.9096 59.1365 71.112C49.5518 88.9085 28.9221 87.1302 19.285 79.4109C16.0945 76.848 11.5309 70.5105 10.8597 66.0995C10.3933 68.2876 11.0602 71.7309 11.6748 74.1282C12.4419 76.3642 13.5533 78.914 14.7302 80.7883C20.9588 90.6956 32.4177 95.0543 41.0567 95.0543C65.7835 95.0543 74.2306 72.8598 73.9953 61.3355C73.8558 54.6056 72.2387 47.5271 65.8009 38.0819C56.8264 25.8819 47.7647 21.8152 36.8636 0C31.6681 10.8967 20.8716 24.0033 20.4052 24.4435Z" fill="#00AE4D"/>
</svg>
